<?xml version="1.0" encoding="UTF-8" standalone="no"?>
<!-- Created with Inkscape (http://www.inkscape.org/) -->

<svg
   width="63.5mm"
   height="67.733307mm"
   viewBox="0 0 63.5 67.733307"
   version="1.1"
   id="svg5"
   sodipodi:docname="crop.svg"
   inkscape:version="1.1.1 (3bf5ae0d25, 2021-09-20)"
   xmlns:inkscape="http://www.inkscape.org/namespaces/inkscape"
   xmlns:sodipodi="http://sodipodi.sourceforge.net/DTD/sodipodi-0.dtd"
   xmlns:xlink="http://www.w3.org/1999/xlink"
   xmlns="http://www.w3.org/2000/svg"
   xmlns:svg="http://www.w3.org/2000/svg">
  <sodipodi:namedview
     id="namedview7"
     pagecolor="#ffffff"
     bordercolor="#999999"
     borderopacity="1"
     inkscape:pageshadow="0"
     inkscape:pageopacity="0"
     inkscape:pagecheckerboard="0"
     inkscape:document-units="mm"
     showgrid="false"
     inkscape:zoom="1.0998546"
     inkscape:cx="108.65073"
     inkscape:cy="180.4784"
     inkscape:window-width="2560"
     inkscape:window-height="1377"
     inkscape:window-x="-8"
     inkscape:window-y="-8"
     inkscape:window-maximized="1"
     inkscape:current-layer="Circle" />
  <defs
     id="defs2">
    <linearGradient
       inkscape:collect="always"
       id="linearGradient7673">
      <stop
         style="stop-color:#7a48ff;stop-opacity:1;"
         offset="0"
         id="stop7669" />
      <stop
         style="stop-color:#3a48ff;stop-opacity:0.88235301"
         offset="1"
         id="stop7671" />
    </linearGradient>
    <circle
       id="react-path-1"
       cx="120"
       cy="120"
       r="120" />
    <path
       d="m 12,160 c 0,66.27417 53.72583,120 120,120 66.27417,0 120,-53.72583 120,-120 h 12 V 0 H 0 v 160 z"
       id="react-path-2" />
    <path
       d="M 124,144.61095 V 163 h 4 v 0 c 39.7645,0 72,32.2355 72,72 v 9 H 0 v -9 c 0,-39.7645 32.235498,-72 72,-72 v 0 h 4 V 144.61095 C 58.762634,136.42237 46.372225,119.68701 44.305139,99.881238 38.480311,99.057787 34,94.05211 34,88 V 74 C 34,68.054007 38.324573,63.118073 44,62.165917 V 56 56 C 44,25.072054 69.072054,0 100,0 v 0 0 c 30.92795,0 56,25.072054 56,56 v 6.165917 c 5.67543,0.952156 10,5.88809 10,11.834083 v 14 c 0,6.05211 -4.48031,11.057787 -10.30514,11.881238 C 153.62778,119.68701 141.23736,136.42237 124,144.61095 Z"
       id="react-path-3" />
    <path
       d="M 105.1924,29.051724 H 104 v 0 c -39.764502,0 -72,32.235497 -72,71.999996 V 110 h 200 v -8.94828 C 232,61.287221 199.7645,29.051724 160,29.051724 v 0 h -1.1924 c 0.12704,0.98359 0.1924,1.984727 0.1924,3 0,13.807118 -12.08831,25 -27,25 -14.91169,0 -27,-11.192882 -27,-25 0,-1.015273 0.0654,-2.01641 0.1924,-3 z"
       id="react-path-39" />
    <path
       d="M 35.117844,15.128077 C 36.175712,24.619802 44.225987,32 54,32 63.804206,32 71.874008,24.574136 72.891759,15.040055 72.973669,14.272746 72.116743,13 71.042767,13 c -14.894013,0 -26.304846,0 -33.955943,0 -1.080207,0 -2.074818,1.178444 -1.96898,2.128077 z"
       id="react-path-43" />
    <rect
       id="react-path-27"
       x="0"
       y="0"
       width="264"
       height="280" />
    <path
       d="m 175.12642,166.89782 c 0.715,2.23977 1.74837,4.33278 3.42877,5.78813 1.621,1.4041 4.51292,1.05952 6.54343,1.1168 1.67207,0.0479 3.346,0.0533 5.01591,-0.0191 0.83913,-0.0364 1.21304,1.01406 0.53424,1.49805 -0.13,0.0927 -0.26,0.18093 -0.39031,0.26216 -1.05085,0.65492 -2.14008,1.25893 -3.24974,1.81232 -2.52358,1.25803 -5.18739,2.2439 -7.9815,2.73426 -1.91643,0.33608 -3.81599,0.39923 -5.65462,0.17607 0.48628,0.72035 1.04696,1.37585 1.69891,1.94128 1.72997,1.50062 4.81631,1.13234 6.98332,1.19356 1.78448,0.0512 3.57095,0.057 5.35311,-0.0204 0.89555,-0.0389 1.29459,1.08376 0.57017,1.60102 -0.13875,0.0991 -0.27749,0.19337 -0.41656,0.28017 -1.12149,0.69995 -2.28395,1.34548 -3.46821,1.93691 -2.69324,1.3445 -5.53612,2.39814 -8.51807,2.92221 -5.49978,0.96587 -10.86941,-0.17749 -15.19452,-3.70798 -1.21714,-0.99352 -2.35339,-2.12566 -3.38075,-3.36028 v -2.44205 c 6.94963,-3.30141 13.11141,-7.99209 18.12642,-13.71313 z M 81.315055,151.59398 c -0.742317,1.54494 -1.50988,3.07854 -2.309199,4.59699 -4.795173,9.10941 -10.763703,20.60198 -22.506526,21.40536 -1.088791,0.0744 -1.51889,1.34661 -0.670584,1.99186 11.119807,8.45331 36.432216,13.59915 45.444804,11.98154 2.82166,-0.50645 5.36533,-1.16764 7.72645,-1.95929 v -8.99949 C 96.562511,174.70254 86.64846,164.34448 81.315055,151.59398 Z M 195.90592,68.679664 c 0.17541,5.507218 -0.61707,11.227421 -1.72139,16.615908 -0.99464,4.852715 -4.31486,8.675885 -5.34716,13.433351 -4.02747,-13.680732 -19.40433,-18.245055 -28.5953,-27.57412 1.99656,3.793075 5.04887,6.947852 7.05236,10.678088 -9.24712,-5.665303 -18.20685,-13.879166 -22.03216,-24.29499 -0.70758,5.398079 -2.71636,10.389697 -6.10826,14.665628 -3.01135,3.796713 -7.58157,7.870903 -12.29515,9.340971 2.42765,-5.507217 4.5025,-11.217499 6.40755,-16.925466 -2.01671,2.616689 -8.69777,13.733648 -10.37523,16.489572 -1.6563,2.721197 -3.51346,5.317712 -5.50738,7.803434 -0.9332,1.163157 -1.9285,2.287288 -2.93074,3.390914 -0.58371,0.642928 -1.17898,1.275272 -1.78713,1.895049 -0.21505,0.218939 -1.84229,2.009149 -0.91206,0.805644 -2.21623,2.802555 -5.47765,4.979051 -8.31062,7.108913 -2.85246,2.14442 -5.959941,3.96869 -9.190968,5.47679 -7.159065,3.3423 -14.512038,4.55903 -22.319555,3.16272 1.194829,0.29897 3.720586,-0.846 4.956047,-1.18201 1.809256,-0.49245 3.473825,-1.11719 5.112957,-2.0237 3.273641,-1.81105 6.34974,-3.97035 9.176104,-6.41836 -2.707113,1.15224 -4.905176,3.33369 -7.664151,4.54315 -2.286593,1.00243 -4.546759,1.52563 -7.031885,1.76607 -5.461463,0.52883 -11.9952,-0.72032 -16.721003,-3.5877 -5.492184,-3.33204 -8.542186,-9.050591 -9.989062,-15.136576 -1.680425,-7.066912 -0.63623,-15.040338 3.327485,-21.074068 0.134447,2.142761 4.435766,3.064489 7.916198,2.527393 9.657404,-1.490904 15.402627,-38.04782 40.426323,-44.566391 19.96128,-5.200306 34.20971,3.874432 35.42039,4.656925 1.4373,0.928673 1.9883,0.539742 3.62116,0.148495 6.3461,-1.520669 13.25774,-2.209236 19.7046,-0.927019 6.34049,1.261381 12.41836,4.546133 17.55907,8.377902 9.52692,7.101307 17.76156,18.581732 18.15896,30.823483 z"
       id="react-path-28" />
    <path
       d="m 65.180219,77.737299 c 2.182966,-1.632766 15.226292,-2.258648 17.57761,-3.64785 0.733817,-0.434063 1.303243,-0.87373 1.741949,-1.309442 0.439036,0.435712 1.008792,0.875379 1.742609,1.309442 2.350988,1.389202 15.394313,2.015084 17.577283,3.64785 2.21036,1.653529 3.8239,5.447384 3.6473,8.413651 -0.21193,3.559191 -4.10548,12.051943 -13.794643,13.030152 -2.114634,-2.352909 -5.435462,-3.870649 -9.172549,-3.870649 -3.736426,0 -7.057584,1.51774 -9.172219,3.870649 C 65.638731,98.202893 61.745176,89.710141 61.53325,86.15095 c -0.176605,-2.966267 1.436935,-6.760122 3.646969,-8.413651 m 37.961421,17.169082 c 0.001,-6.59e-4 0.003,-0.0013 0.004,-0.0016 -0.002,3.3e-4 -0.003,9.89e-4 -0.004,0.0016 m -37.296265,-0.0049 c 0.004,0.0016 0.01122,0.0043 0.0165,0.0063 -0.0053,-0.002 -0.01089,-0.0043 -0.0165,-0.0063 M 144.86259,55.985334 c -0.3882,-5.954946 -1.58482,-11.833428 -2.6286,-17.699056 C 141.95274,36.707235 140.42371,26 139.73478,26 c -0.23239,9.109406 -1.03289,18.080386 -2.06512,27.139365 -0.30864,2.708202 -0.63181,5.417063 -0.8444,8.134822 -0.17165,2.195368 0.13435,4.847869 -0.39744,6.971387 -0.67869,2.706883 -4.07973,5.232824 -6.72484,6.165221 -6.60007,2.326542 -12.10518,-7.303026 -17.742,-10.119661 C 104.64327,60.634715 92.063739,59.763989 84.581643,64.529792 76.936147,59.763989 64.356614,60.634715 57.038909,64.291134 51.402415,67.107769 45.896971,76.737337 39.297238,74.410795 36.65213,73.478398 33.250427,70.952457 32.572397,68.245574 32.040272,66.122056 32.346277,63.469555 32.174954,61.274187 31.962368,58.556428 31.638868,55.847567 31.330223,53.139365 30.298323,44.080386 29.497495,35.109406 29.265433,26 28.57618,26 27.046817,36.707235 26.7659,38.286278 c -1.043783,5.865628 -2.240073,11.74411 -2.628274,17.699056 -0.399093,6.119408 0.07724,12.182128 1.331963,18.177942 0.599135,2.864426 1.298952,5.712371 2.049274,8.540872 0.833838,3.142595 -0.319869,9.262004 0.05348,12.487984 0.706419,6.103588 3.581939,18.007548 6.810999,23.258828 1.560722,2.53814 3.390149,4.12278 5.433151,6.16819 1.966089,1.96894 2.787383,5.0209 4.909609,7.11772 3.955945,3.90822 9.719529,6.23443 15.639581,6.80626 5.31167,4.50708 14.139922,7.45687 24.134095,7.45687 9.994833,0 18.822752,-2.94979 24.134762,-7.45687 5.91939,-0.57183 11.6833,-2.89804 15.63958,-6.80626 2.1219,-2.09682 2.94319,-5.14878 4.90961,-7.11772 2.04267,-2.04541 3.8721,-3.63005 5.43315,-6.16819 3.22873,-5.25128 6.10458,-17.15524 6.81067,-23.258828 0.37334,-3.22598 -0.78037,-9.345389 0.0538,-12.487984 0.75033,-2.828501 1.44981,-5.676446 2.04928,-8.540872 1.25406,-5.995814 1.73072,-12.058534 1.33196,-18.177942 z"
       id="react-path-29" />
    <linearGradient
       inkscape:collect="always"
       xlink:href="#linearGradient7673"
       id="linearGradient7675"
       x1="0"
       y1="120"
       x2="240"
       y2="120"
       gradientUnits="userSpaceOnUse" />
    <linearGradient
       inkscape:collect="always"
       xlink:href="#linearGradient7673"
       id="linearGradient9696"
       gradientUnits="userSpaceOnUse"
       x1="0"
       y1="120"
       x2="240"
       y2="120" />
  </defs>
  <g
     inkscape:label="Layer 1"
     inkscape:groupmode="layer"
     id="layer1"
     transform="translate(-73.033506,-109.01994)">
    <g
       id="g919"
       style="fill:none;fill-rule:evenodd;stroke:none;stroke-width:1"
       transform="matrix(0.26458333,0,0,0.26458333,69.858506,102.66991)">
      <g
         id="Circle"
         stroke-width="1"
         fill-rule="evenodd"
         transform="translate(12,40)">
        <mask
           id="react-mask-4"
           fill="#ffffff">
          <use
             xlink:href="#react-path-1"
             id="use831"
             x="0"
             y="0"
             width="100%"
             height="100%" />
        </mask>
        <use
           id="Circle-Background"
           fill="#e6e6e6"
           xlink:href="#react-path-1"
           x="0"
           y="0"
           width="100%"
           height="100%"
           inkscape:export-filename="C:\Users\clean\Desktop\fs.png"
           inkscape:export-xdpi="105.00006"
           inkscape:export-ydpi="105.00006" />
        <g
           id="Color/Palette/Blue-01"
           mask="url(#react-mask-4)"
           fill="#65c9ff"
           style="fill:url(#linearGradient7675);fill-opacity:1"
           inkscape:export-filename="C:\Users\clean\Desktop\fs.png"
           inkscape:export-xdpi="105.00006"
           inkscape:export-ydpi="105.00006"
           transform="rotate(69.385005,120,120)">
          <rect
             id="ðŸ–Color"
             x="0"
             y="0"
             width="240"
             height="240"
             style="fill:url(#linearGradient9696);fill-opacity:1" />
        </g>
      </g>
      <mask
         id="react-mask-5"
         fill="#ffffff">
        <use
           xlink:href="#react-path-2"
           id="use838"
           x="0"
           y="0"
           width="100%"
           height="100%" />
      </mask>
      <g
         id="Mask" />
      <g
         id="Avataaar"
         stroke-width="1"
         fill-rule="evenodd"
         mask="url(#react-mask-5)"
         inkscape:export-filename="C:\Users\clean\Desktop\fs.png"
         inkscape:export-xdpi="105.00006"
         inkscape:export-ydpi="105.00006">
        <g
           id="Body"
           transform="translate(32,36)">
          <mask
             id="react-mask-6"
             fill="#ffffff">
            <use
               xlink:href="#react-path-3"
               id="use842"
               x="0"
               y="0"
               width="100%"
               height="100%" />
          </mask>
          <use
             fill="#d0c6ac"
             xlink:href="#react-path-3"
             id="use845"
             x="0"
             y="0"
             width="100%"
             height="100%" />
          <g
             id="Skin/ðŸ‘¶ðŸ½-03-Brown"
             mask="url(#react-mask-6)"
             fill="#edb98a">
            <g
               id="Color">
              <rect
                 x="0"
                 y="0"
                 width="264"
                 height="280"
                 id="rect847" />
            </g>
          </g>
          <path
             d="m 156,79 v 23 c 0,30.92795 -25.07205,56 -56,56 -30.927946,0 -56,-25.07205 -56,-56 V 79 94 c 0,30.92795 25.072054,56 56,56 30.92795,0 56,-25.07205 56,-56 z"
             id="Neck-Shadow"
             fill-opacity="0.1"
             fill="#000000"
             mask="url(#react-mask-6)" />
        </g>
        <g
           id="Clothing/Collar-+-Sweater"
           transform="translate(0,170)">
          <defs
             id="defs854">
            <path
               d="M 105.1924,29.051724 H 104 v 0 c -39.764502,0 -72,32.235497 -72,71.999996 V 110 h 200 v -8.94828 C 232,61.287221 199.7645,29.051724 160,29.051724 v 0 h -1.1924 c 0.12704,0.98359 0.1924,1.984727 0.1924,3 0,13.807118 -12.08831,25 -27,25 -14.91169,0 -27,-11.192882 -27,-25 0,-1.015273 0.0654,-2.01641 0.1924,-3 z"
               id="path1086" />
          </defs>
          <mask
             id="react-mask-40"
             fill="#ffffff">
            <use
               xlink:href="#react-path-39"
               id="use856"
               x="0"
               y="0"
               width="100%"
               height="100%" />
          </mask>
          <use
             id="Clothes"
             fill="#e6e6e6"
             fill-rule="evenodd"
             xlink:href="#react-path-39"
             x="0"
             y="0"
             width="100%"
             height="100%" />
          <g
             id="Color/Palette/Gray-01"
             mask="url(#react-mask-40)"
             fill-rule="evenodd"
             fill="#3c4f5c">
            <rect
               id="rect860"
               x="0"
               y="0"
               width="264"
               height="110" />
          </g>
          <path
             d="m 156,22.279491 c 6.18165,4.555695 10,10.826236 10,17.748424 0,7.205579 -4.1374,13.705062 -10.771,18.299252 L 149.57933,53.876493 145,54.207887 l 1,-3.151105 -0.0778,-0.06127 C 152.02249,47.853051 156,42.700358 156,36.87681 Z m -48,-0.707992 c -6.76725,4.602509 -11,11.168278 -11,18.456416 0,7.39824 4.3616,14.05212 11.30843,18.663657 l 6.11224,-4.815079 4.57933,0.331394 -1,-3.151105 0.0778,-0.06127 C 111.97751,47.853051 108,42.700358 108,36.87681 Z"
             id="Collar"
             fill="#f2f2f2"
             fill-rule="evenodd" />
        </g>
        <g
           id="Face"
           transform="translate(76,82)"
           fill="#000000">
          <g
             id="Mouth/Smile"
             transform="translate(2,52)">
            <defs
               id="defs866">
              <path
                 d="M 35.117844,15.128077 C 36.175712,24.619802 44.225987,32 54,32 63.804206,32 71.874008,24.574136 72.891759,15.040055 72.973669,14.272746 72.116743,13 71.042767,13 c -14.894013,0 -26.304846,0 -33.955943,0 -1.080207,0 -2.074818,1.178444 -1.96898,2.128077 z"
                 id="path1096" />
            </defs>
            <mask
               id="react-mask-44"
               fill="#ffffff">
              <use
                 xlink:href="#react-path-43"
                 id="use868"
                 x="0"
                 y="0"
                 width="100%"
                 height="100%" />
            </mask>
            <use
               id="Mouth"
               fill-opacity="0.7"
               fill="#000000"
               fill-rule="evenodd"
               xlink:href="#react-path-43"
               x="0"
               y="0"
               width="100%"
               height="100%" />
            <rect
               id="Teeth"
               fill="#ffffff"
               fill-rule="evenodd"
               mask="url(#react-mask-44)"
               x="39"
               y="2"
               width="31"
               height="16"
               rx="5" />
            <g
               id="Tongue"
               stroke-width="1"
               fill-rule="evenodd"
               mask="url(#react-mask-44)"
               fill="#ff4f6d">
              <g
                 transform="translate(38,24)"
                 id="g877">
                <circle
                   cx="11"
                   cy="11"
                   r="11"
                   id="circle873" />
                <circle
                   cx="21"
                   cy="11"
                   r="11"
                   id="circle875" />
              </g>
            </g>
          </g>
          <g
             id="Nose/Default"
             transform="translate(28,40)"
             fill-opacity="0.16">
            <path
               d="m 16,8 c 0,4.418278 5.372583,8 12,8 v 0 c 6.627417,0 12,-3.581722 12,-8"
               id="Nose" />
          </g>
          <g
             id="Eyes/Happy-ðŸ˜"
             transform="translate(0,8)"
             fill-opacity="0.6">
            <path
               d="M 16.160167,22.447312 C 18.006676,18.648508 22.164422,16 26.99758,16 c 4.816097,0 8.961542,2.629842 10.817772,6.407124 0.551408,1.122074 -0.233248,2.040358 -1.024745,1.359899 -2.451101,-2.10724 -5.931891,-3.423235 -9.793027,-3.423235 -3.740374,0 -7.123822,1.234964 -9.560041,3.227853 -0.890746,0.728653 -1.817438,-0.01326 -1.277372,-1.124329 z"
               id="Squint" />
            <path
               d="M 74.160167,22.447312 C 76.006676,18.648508 80.164422,16 84.99758,16 c 4.816097,0 8.961542,2.629842 10.817772,6.407124 0.551408,1.122074 -0.233248,2.040358 -1.024745,1.359899 -2.451101,-2.10724 -5.931891,-3.423235 -9.793027,-3.423235 -3.740374,0 -7.123822,1.234964 -9.560041,3.227853 -0.890746,0.728653 -1.817438,-0.01326 -1.277372,-1.124329 z"
               id="path884" />
          </g>
          <g
             id="Eyebrow/Outline/Default"
             fill-opacity="0.6">
            <g
               id="I-Browse"
               transform="translate(12,6)">
              <path
                 d="M 3.6302454,11.158577 C 7.545155,5.6498667 18.27792,2.5608372 27.523027,4.8311805 28.595725,5.0946055 29.678867,4.4385601 29.942292,3.3658621 30.205717,2.2931641 29.549671,1.2100224 28.476973,0.94659732 17.740363,-1.6900179 5.3120996,1.8869983 0.36975464,8.8414233 -0.27010963,9.7417829 -0.05893639,10.990381 0.84142326,11.630245 1.7417829,12.27011 2.9903811,12.058936 3.6302454,11.158577 Z"
                 id="Eyebrow"
                 fill-rule="nonzero" />
              <path
                 d="M 61.630245,11.158577 C 65.545155,5.6498667 76.27792,2.5608372 85.523027,4.8311805 86.595725,5.0946055 87.678866,4.4385601 87.942292,3.3658621 88.205717,2.2931641 87.549671,1.2100224 86.476973,0.94659732 75.740363,-1.6900179 63.3121,1.8869983 58.369755,8.8414233 c -0.639865,0.9003596 -0.428691,2.1489577 0.471668,2.7888217 0.90036,0.639865 2.148958,0.428691 2.788822,-0.471668 z"
                 id="path888"
                 fill-rule="nonzero"
                 transform="matrix(-1,0,0,1,146.00031,0)" />
            </g>
          </g>
        </g>
        <g
           id="Top"
           stroke-width="1"
           fill-rule="evenodd">
          <defs
             id="defs896">
            <rect
               id="rect1118"
               x="0"
               y="0"
               width="264"
               height="280" />
            <path
               d="m 175.12642,166.89782 c 0.715,2.23977 1.74837,4.33278 3.42877,5.78813 1.621,1.4041 4.51292,1.05952 6.54343,1.1168 1.67207,0.0479 3.346,0.0533 5.01591,-0.0191 0.83913,-0.0364 1.21304,1.01406 0.53424,1.49805 -0.13,0.0927 -0.26,0.18093 -0.39031,0.26216 -1.05085,0.65492 -2.14008,1.25893 -3.24974,1.81232 -2.52358,1.25803 -5.18739,2.2439 -7.9815,2.73426 -1.91643,0.33608 -3.81599,0.39923 -5.65462,0.17607 0.48628,0.72035 1.04696,1.37585 1.69891,1.94128 1.72997,1.50062 4.81631,1.13234 6.98332,1.19356 1.78448,0.0512 3.57095,0.057 5.35311,-0.0204 0.89555,-0.0389 1.29459,1.08376 0.57017,1.60102 -0.13875,0.0991 -0.27749,0.19337 -0.41656,0.28017 -1.12149,0.69995 -2.28395,1.34548 -3.46821,1.93691 -2.69324,1.3445 -5.53612,2.39814 -8.51807,2.92221 -5.49978,0.96587 -10.86941,-0.17749 -15.19452,-3.70798 -1.21714,-0.99352 -2.35339,-2.12566 -3.38075,-3.36028 v -2.44205 c 6.94963,-3.30141 13.11141,-7.99209 18.12642,-13.71313 z M 81.315055,151.59398 c -0.742317,1.54494 -1.50988,3.07854 -2.309199,4.59699 -4.795173,9.10941 -10.763703,20.60198 -22.506526,21.40536 -1.088791,0.0744 -1.51889,1.34661 -0.670584,1.99186 11.119807,8.45331 36.432216,13.59915 45.444804,11.98154 2.82166,-0.50645 5.36533,-1.16764 7.72645,-1.95929 v -8.99949 C 96.562511,174.70254 86.64846,164.34448 81.315055,151.59398 Z M 195.90592,68.679664 c 0.17541,5.507218 -0.61707,11.227421 -1.72139,16.615908 -0.99464,4.852715 -4.31486,8.675885 -5.34716,13.433351 -4.02747,-13.680732 -19.40433,-18.245055 -28.5953,-27.57412 1.99656,3.793075 5.04887,6.947852 7.05236,10.678088 -9.24712,-5.665303 -18.20685,-13.879166 -22.03216,-24.29499 -0.70758,5.398079 -2.71636,10.389697 -6.10826,14.665628 -3.01135,3.796713 -7.58157,7.870903 -12.29515,9.340971 2.42765,-5.507217 4.5025,-11.217499 6.40755,-16.925466 -2.01671,2.616689 -8.69777,13.733648 -10.37523,16.489572 -1.6563,2.721197 -3.51346,5.317712 -5.50738,7.803434 -0.9332,1.163157 -1.9285,2.287288 -2.93074,3.390914 -0.58371,0.642928 -1.17898,1.275272 -1.78713,1.895049 -0.21505,0.218939 -1.84229,2.009149 -0.91206,0.805644 -2.21623,2.802555 -5.47765,4.979051 -8.31062,7.108913 -2.85246,2.14442 -5.959941,3.96869 -9.190968,5.47679 -7.159065,3.3423 -14.512038,4.55903 -22.319555,3.16272 1.194829,0.29897 3.720586,-0.846 4.956047,-1.18201 1.809256,-0.49245 3.473825,-1.11719 5.112957,-2.0237 3.273641,-1.81105 6.34974,-3.97035 9.176104,-6.41836 -2.707113,1.15224 -4.905176,3.33369 -7.664151,4.54315 -2.286593,1.00243 -4.546759,1.52563 -7.031885,1.76607 -5.461463,0.52883 -11.9952,-0.72032 -16.721003,-3.5877 -5.492184,-3.33204 -8.542186,-9.050591 -9.989062,-15.136576 -1.680425,-7.066912 -0.63623,-15.040338 3.327485,-21.074068 0.134447,2.142761 4.435766,3.064489 7.916198,2.527393 9.657404,-1.490904 15.402627,-38.04782 40.426323,-44.566391 19.96128,-5.200306 34.20971,3.874432 35.42039,4.656925 1.4373,0.928673 1.9883,0.539742 3.62116,0.148495 6.3461,-1.520669 13.25774,-2.209236 19.7046,-0.927019 6.34049,1.261381 12.41836,4.546133 17.55907,8.377902 9.52692,7.101307 17.76156,18.581732 18.15896,30.823483 z"
               id="path1120" />
            <path
               d="m 65.180219,77.737299 c 2.182966,-1.632766 15.226292,-2.258648 17.57761,-3.64785 0.733817,-0.434063 1.303243,-0.87373 1.741949,-1.309442 0.439036,0.435712 1.008792,0.875379 1.742609,1.309442 2.350988,1.389202 15.394313,2.015084 17.577283,3.64785 2.21036,1.653529 3.8239,5.447384 3.6473,8.413651 -0.21193,3.559191 -4.10548,12.051943 -13.794643,13.030152 -2.114634,-2.352909 -5.435462,-3.870649 -9.172549,-3.870649 -3.736426,0 -7.057584,1.51774 -9.172219,3.870649 C 65.638731,98.202893 61.745176,89.710141 61.53325,86.15095 c -0.176605,-2.966267 1.436935,-6.760122 3.646969,-8.413651 m 37.961421,17.169082 c 0.001,-6.59e-4 0.003,-0.0013 0.004,-0.0016 -0.002,3.3e-4 -0.003,9.89e-4 -0.004,0.0016 m -37.296265,-0.0049 c 0.004,0.0016 0.01122,0.0043 0.0165,0.0063 -0.0053,-0.002 -0.01089,-0.0043 -0.0165,-0.0063 M 144.86259,55.985334 c -0.3882,-5.954946 -1.58482,-11.833428 -2.6286,-17.699056 C 141.95274,36.707235 140.42371,26 139.73478,26 c -0.23239,9.109406 -1.03289,18.080386 -2.06512,27.139365 -0.30864,2.708202 -0.63181,5.417063 -0.8444,8.134822 -0.17165,2.195368 0.13435,4.847869 -0.39744,6.971387 -0.67869,2.706883 -4.07973,5.232824 -6.72484,6.165221 -6.60007,2.326542 -12.10518,-7.303026 -17.742,-10.119661 C 104.64327,60.634715 92.063739,59.763989 84.581643,64.529792 76.936147,59.763989 64.356614,60.634715 57.038909,64.291134 51.402415,67.107769 45.896971,76.737337 39.297238,74.410795 36.65213,73.478398 33.250427,70.952457 32.572397,68.245574 32.040272,66.122056 32.346277,63.469555 32.174954,61.274187 31.962368,58.556428 31.638868,55.847567 31.330223,53.139365 30.298323,44.080386 29.497495,35.109406 29.265433,26 28.57618,26 27.046817,36.707235 26.7659,38.286278 c -1.043783,5.865628 -2.240073,11.74411 -2.628274,17.699056 -0.399093,6.119408 0.07724,12.182128 1.331963,18.177942 0.599135,2.864426 1.298952,5.712371 2.049274,8.540872 0.833838,3.142595 -0.319869,9.262004 0.05348,12.487984 0.706419,6.103588 3.581939,18.007548 6.810999,23.258828 1.560722,2.53814 3.390149,4.12278 5.433151,6.16819 1.966089,1.96894 2.787383,5.0209 4.909609,7.11772 3.955945,3.90822 9.719529,6.23443 15.639581,6.80626 5.31167,4.50708 14.139922,7.45687 24.134095,7.45687 9.994833,0 18.822752,-2.94979 24.134762,-7.45687 5.91939,-0.57183 11.6833,-2.89804 15.63958,-6.80626 2.1219,-2.09682 2.94319,-5.14878 4.90961,-7.11772 2.04267,-2.04541 3.8721,-3.63005 5.43315,-6.16819 3.22873,-5.25128 6.10458,-17.15524 6.81067,-23.258828 0.37334,-3.22598 -0.78037,-9.345389 0.0538,-12.487984 0.75033,-2.828501 1.44981,-5.676446 2.04928,-8.540872 1.25406,-5.995814 1.73072,-12.058534 1.33196,-18.177942 z"
               id="path1122" />
          </defs>
          <mask
             id="react-mask-25"
             fill="#ffffff">
            <use
               xlink:href="#react-path-27"
               id="use898"
               x="0"
               y="0"
               width="100%"
               height="100%" />
          </mask>
          <g
             id="g901" />
          <g
             id="Top/Short-Hair/Shaggy-Mullet"
             mask="url(#react-mask-25)">
            <g
               transform="translate(-1)"
               id="g914">
              <mask
                 id="react-mask-26"
                 fill="#ffffff">
                <use
                   xlink:href="#react-path-28"
                   id="use903"
                   x="0"
                   y="0"
                   width="100%"
                   height="100%" />
              </mask>
              <use
                 id="Hair"
                 stroke="none"
                 fill="#1d2633"
                 fill-rule="evenodd"
                 xlink:href="#react-path-28"
                 x="0"
                 y="0"
                 width="100%"
                 height="100%" />
              <g
                 id="g911"
                 mask="url(#react-mask-26)"
                 fill="#4a312c">
                <g
                   id="g909">
                  <rect
                     x="0"
                     y="0"
                     width="264"
                     height="280"
                     id="rect907" />
                </g>
              </g>
              <path
                 d="m 175.12642,166.89782 c 0.715,2.23977 1.74837,4.33278 3.42877,5.78813 1.621,1.4041 4.51292,1.05952 6.54343,1.1168 1.67207,0.0479 3.346,0.0533 5.01591,-0.0191 0.83913,-0.0364 1.21304,1.01406 0.53424,1.49805 -0.13,0.0927 -0.26,0.18093 -0.39031,0.26216 -1.05085,0.65492 -2.14008,1.25893 -3.24974,1.81232 -2.52358,1.25803 -5.18739,2.2439 -7.9815,2.73426 -1.91643,0.33608 -3.81599,0.39923 -5.65462,0.17607 0.48628,0.72035 1.04696,1.37585 1.69891,1.94128 1.72997,1.50062 4.81631,1.13234 6.98332,1.19356 1.78448,0.0512 3.57095,0.057 5.35311,-0.0204 0.89555,-0.0389 1.29459,1.08376 0.57017,1.60102 -0.13875,0.0991 -0.27749,0.19337 -0.41656,0.28017 -1.12149,0.69995 -2.28395,1.34548 -3.46821,1.93691 -2.69324,1.3445 -5.53612,2.39814 -8.51807,2.92221 -5.49978,0.96587 -10.86941,-0.17749 -15.19452,-3.70798 -1.21714,-0.99352 -2.35339,-2.12566 -3.38075,-3.36028 v -2.44205 c 6.94963,-3.30141 13.11141,-7.99209 18.12642,-13.71313 z M 81.315055,151.59398 c -0.742317,1.54494 -1.50988,3.07854 -2.309199,4.59699 -4.795173,9.10941 -10.763703,20.60198 -22.506526,21.40536 -1.088791,0.0744 -1.51889,1.34661 -0.670584,1.99186 11.119807,8.45331 36.432216,13.59915 45.444804,11.98154 2.82166,-0.50645 5.36533,-1.16764 7.72645,-1.95929 v -8.99949 C 96.562511,174.70254 86.64846,164.34448 81.315055,151.59398 Z"
                 id="Shadow"
                 stroke="none"
                 fill-opacity="0.16"
                 fill="#000000"
                 fill-rule="evenodd" />
            </g>
          </g>
        </g>
      </g>
    </g>
  </g>
</svg>
